<svg width="24" height="24" viewBox="0 0 24 24" fill="none" xmlns="http://www.w3.org/2000/svg">
<mask id="mask0_725_3052" style="mask-type:alpha" maskUnits="userSpaceOnUse" x="0" y="0" width="24" height="24">
<rect width="24" height="24" fill="#D9D9D9"/>
</mask>
<g mask="url(#mask0_725_3052)">
<path d="M5.52578 16.1749L9.07578 12.6249C9.27578 12.4249 9.50911 12.3291 9.77578 12.3374C10.0424 12.3457 10.2758 12.4499 10.4758 12.6499C10.6591 12.8499 10.7508 13.0832 10.7508 13.3499C10.7508 13.6166 10.6591 13.8499 10.4758 14.0499L6.25078 18.2999C6.05078 18.4999 5.81745 18.5999 5.55078 18.5999C5.28411 18.5999 5.05078 18.4999 4.85078 18.2999L2.70078 16.1499C2.51745 15.9666 2.42578 15.7332 2.42578 15.4499C2.42578 15.1666 2.51745 14.9332 2.70078 14.7499C2.88411 14.5666 3.11745 14.4749 3.40078 14.4749C3.68411 14.4749 3.91745 14.5666 4.10078 14.7499L5.52578 16.1749ZM5.52578 8.17491L9.07578 4.62491C9.27578 4.42491 9.50911 4.32908 9.77578 4.33741C10.0424 4.34575 10.2758 4.44991 10.4758 4.64991C10.6591 4.84991 10.7508 5.08325 10.7508 5.34991C10.7508 5.61658 10.6591 5.84991 10.4758 6.04991L6.25078 10.2999C6.05078 10.4999 5.81745 10.5999 5.55078 10.5999C5.28411 10.5999 5.05078 10.4999 4.85078 10.2999L2.70078 8.14991C2.51745 7.96658 2.42578 7.73325 2.42578 7.44991C2.42578 7.16658 2.51745 6.93325 2.70078 6.74991C2.88411 6.56658 3.11745 6.47491 3.40078 6.47491C3.68411 6.47491 3.91745 6.56658 4.10078 6.74991L5.52578 8.17491ZM14.0008 16.9999C13.7174 16.9999 13.4799 16.9041 13.2883 16.7124C13.0966 16.5207 13.0008 16.2832 13.0008 15.9999C13.0008 15.7166 13.0966 15.4791 13.2883 15.2874C13.4799 15.0957 13.7174 14.9999 14.0008 14.9999H21.0008C21.2841 14.9999 21.5216 15.0957 21.7133 15.2874C21.9049 15.4791 22.0008 15.7166 22.0008 15.9999C22.0008 16.2832 21.9049 16.5207 21.7133 16.7124C21.5216 16.9041 21.2841 16.9999 21.0008 16.9999H14.0008ZM14.0008 8.99991C13.7174 8.99991 13.4799 8.90408 13.2883 8.71241C13.0966 8.52075 13.0008 8.28325 13.0008 7.99991C13.0008 7.71658 13.0966 7.47908 13.2883 7.28741C13.4799 7.09575 13.7174 6.99991 14.0008 6.99991H21.0008C21.2841 6.99991 21.5216 7.09575 21.7133 7.28741C21.9049 7.47908 22.0008 7.71658 22.0008 7.99991C22.0008 8.28325 21.9049 8.52075 21.7133 8.71241C21.5216 8.90408 21.2841 8.99991 21.0008 8.99991H14.0008Z" fill="white"/>
</g>
</svg>
