<svg width="18" height="20" viewBox="0 0 18 20" fill="none" xmlns="http://www.w3.org/2000/svg">
<path d="M0 18V14C0 12.6167 0.4875 11.4375 1.4625 10.4625C2.4375 9.4875 3.61667 9 5 9H15.725C16.3583 9 16.8958 9.21667 17.3375 9.65C17.7792 10.0833 18 10.6167 18 11.25C18 11.7667 17.8417 12.2292 17.525 12.6375C17.2083 13.0458 16.8083 13.3167 16.325 13.45L14 14.125V18C14 18.35 13.9208 18.6667 13.7625 18.95C13.6042 19.2333 13.3917 19.4667 13.125 19.65C12.8583 19.8333 12.5667 19.9458 12.25 19.9875C11.9333 20.0292 11.6083 19.9833 11.275 19.85L6.55 18H0ZM12 15H6.375C6.25833 15 6.17083 15.0333 6.1125 15.1C6.05417 15.1667 6.01667 15.2417 6 15.325C5.98333 15.4083 5.99583 15.4875 6.0375 15.5625C6.07917 15.6375 6.15 15.6917 6.25 15.725L12 18V15ZM2 16H4.1C4.06667 15.9 4.04167 15.8 4.025 15.7C4.00833 15.6 4 15.4917 4 15.375C4 14.725 4.23333 14.1667 4.7 13.7C5.16667 13.2333 5.725 13 6.375 13H10.45L15.8 11.525C15.8833 11.4917 15.9417 11.45 15.975 11.4C16.0083 11.35 16.0167 11.2917 16 11.225C15.9833 11.1583 15.9542 11.1042 15.9125 11.0625C15.8708 11.0208 15.8083 11 15.725 11H5C4.16667 11 3.45833 11.2917 2.875 11.875C2.29167 12.4583 2 13.1667 2 14V16ZM7 8C5.9 8 4.95833 7.60833 4.175 6.825C3.39167 6.04167 3 5.1 3 4C3 2.9 3.39167 1.95833 4.175 1.175C4.95833 0.391667 5.9 0 7 0C8.1 0 9.04167 0.391667 9.825 1.175C10.6083 1.95833 11 2.9 11 4C11 5.1 10.6083 6.04167 9.825 6.825C9.04167 7.60833 8.1 8 7 8ZM7 6C7.55 6 8.02083 5.80417 8.4125 5.4125C8.80417 5.02083 9 4.55 9 4C9 3.45 8.80417 2.97917 8.4125 2.5875C8.02083 2.19583 7.55 2 7 2C6.45 2 5.97917 2.19583 5.5875 2.5875C5.19583 2.97917 5 3.45 5 4C5 4.55 5.19583 5.02083 5.5875 5.4125C5.97917 5.80417 6.45 6 7 6Z" fill="white"/>
</svg>
